HIERARCHY
ROOT Hips
{
	OFFSET 0.000000 0.000000 0.000000
	CHANNELS 6 Xposition Yposition Zposition Zrotation Yrotation Xrotation 
	JOINT LowerBack
	{
		OFFSET 0.000000 0.000000 0.000000
		CHANNELS 3 Zrotation Yrotation Xrotation
		JOINT Spine
		{
			OFFSET 0.028270 2.035590 -0.193380
			CHANNELS 3 Zrotation Yrotation Xrotation
			JOINT Spine1
			{
				OFFSET 0.056720 2.048850 -0.042750
				CHANNELS 3 Zrotation Yrotation Xrotation
				JOINT Neck
				{
					OFFSET 0.000000 0.000000 0.000000
					CHANNELS 3 Zrotation Yrotation Xrotation
					JOINT Neck1
					{
						OFFSET -0.054170 1.746240 0.172020
						CHANNELS 3 Zrotation Yrotation Xrotation
						JOINT Head
						{
							OFFSET 0.104070 1.761360 -0.123970
							CHANNELS 3 Zrotation Yrotation Xrotation
							End Site
							{
								OFFSET 0.000000 0.000000 0.000000
							}
						}
					}
				}
				JOINT LeftShoulder
				{
					OFFSET 0.000000 0.000000 0.000000
					CHANNELS 3 Zrotation Yrotation Xrotation
					JOINT LeftArm
					{
						OFFSET 3.362410 1.200890 -0.311210
						CHANNELS 3 Zrotation Yrotation Xrotation
						JOINT LeftForeArm
						{
							OFFSET 4.983000 -0.000000 -0.000000
							CHANNELS 3 Zrotation Yrotation Xrotation
							JOINT LeftHand
							{
								OFFSET 3.483560 -0.000000 -0.000000
								CHANNELS 3 Zrotation Yrotation Xrotation
								JOINT LeftFingerBase
								{
									OFFSET 0.000000 0.000000 0.000000
									CHANNELS 3 Zrotation Yrotation Xrotation
									JOINT LeftHandIndex1
									{
										OFFSET 0.715260 -0.000000 -0.000000
										CHANNELS 3 Zrotation Yrotation Xrotation
										End Site
										{
											OFFSET 0.000000 0.000000 0.000000
										}
									}
								}
								JOINT LThumb
								{
									OFFSET 0.000000 0.000000 0.000000
									CHANNELS 3 Zrotation Yrotation Xrotation
									End Site
									{
										OFFSET 0.000000 0.000000 0.000000
									}
								}
							}
						}
					}
				}
				JOINT RightShoulder
				{
					OFFSET 0.000000 0.000000 0.000000
					CHANNELS 3 Zrotation Yrotation Xrotation
					JOINT RightArm
					{
						OFFSET -3.136600 1.374050 -0.404650
						CHANNELS 3 Zrotation Yrotation Xrotation
						JOINT RightForeArm
						{
							OFFSET -5.241900 -0.000000 -0.000000
							CHANNELS 3 Zrotation Yrotation Xrotation
							JOINT RightHand
							{
								OFFSET -3.444170 -0.000000 -0.000000
								CHANNELS 3 Zrotation Yrotation Xrotation
								JOINT RightFingerBase
								{
									OFFSET 0.000000 0.000000 0.000000
									CHANNELS 3 Zrotation Yrotation Xrotation
									JOINT RightHandIndex1
									{
										OFFSET -0.622530 -0.000000 -0.000000
										CHANNELS 3 Zrotation Yrotation Xrotation
										End Site
										{
											OFFSET 0.000000 0.000000 0.000000
										}
									}
								}
								JOINT RThumb
								{
									OFFSET 0.000000 0.000000 0.000000
									CHANNELS 3 Zrotation Yrotation Xrotation
									End Site
									{
										OFFSET 0.000000 0.000000 0.000000
									}
								}
							}
						}
					}
				}
			}
		}
	}
}
}
MOTION
Frames: 7
Frame Time: 0.008333
3.229538 16.522475 0.566428 11.740423 64.331912 27.819521 -2.049889 -3.404980 -0.609663 -0.668692 -3.249589 -3.174754 -6.183529 -3.167504 -1.512470 9.901692 -13.653297 -8.170898 -3.310812 -0.246290 -0.152152 0.000000 0.000000 0.000000 4.569079 6.377380 -0.475886 -74.071534 4.295709 28.993586 -179.434100 -71.124772 179.957468 5.436970 -5.198038 -0.279733 -0.115084 0.655455 -0.000000 0.000000 0.000000 0.000000 0.000000 0.000000 0.000000 9.905775 -8.633856 -0.607924 74.291397 -4.383225 35.180553 179.603074 75.397456 179.983627 -1.821006 9.191621 -0.154033 -0.005054 -0.632872 0.000000 0.000000 0.000000 0.000000 0.000000 0.000000 0.000000 
3.434373 16.635785 0.662876 11.144772 63.753964 27.186177 -1.769218 -3.520865 -0.741044 -0.574361 -3.386363 -3.180543 -6.052861 -3.304100 -1.425145 9.811999 -13.997920 -8.295713 -3.286024 -0.243856 -0.177905 0.000000 0.000000 0.000000 4.993578 6.446479 -0.557817 -74.383964 4.422667 29.079628 -179.412611 -69.926256 179.958531 5.168423 -5.261027 -0.269097 -0.106360 0.670903 -0.000000 0.000000 0.000000 0.000000 0.000000 0.000000 0.000000 9.629433 -9.008058 -0.647726 73.659824 -4.866886 35.620864 179.565295 74.523827 179.985861 -1.466958 9.292918 -0.124168 -0.013819 -0.638057 -0.000000 0.000000 0.000000 0.000000 0.000000 0.000000 0.000000 
3.638343 16.754247 0.763790 10.585671 63.166450 26.566351 -1.498035 -3.621142 -0.844277 -0.485519 -3.506350 -3.183535 -5.931979 -3.423944 -1.341340 9.726125 -14.318246 -8.415568 -3.259768 -0.241262 -0.203218 0.000000 0.000000 0.000000 5.334972 6.552479 -0.626486 -74.572090 4.501210 29.253585 -179.390243 -68.842856 179.959539 4.941997 -5.304368 -0.259465 -0.099619 0.684313 -0.000000 0.000000 0.000000 0.000000 0.000000 0.000000 0.000000 9.372974 -9.351876 -0.694876 73.100459 -5.350374 35.957022 179.536557 73.790046 179.987446 -1.216930 9.302879 -0.102099 -0.020351 -0.639890 0.000000 0.000000 0.000000 0.000000 0.000000 0.000000 0.000000 
3.841438 16.876203 0.868397 10.045858 62.575376 25.950391 -1.224696 -3.703682 -0.924338 -0.399815 -3.608272 -3.185250 -5.819217 -3.525913 -1.263120 9.634179 -14.620401 -8.525842 -3.229765 -0.238399 -0.226605 0.000000 0.000000 0.000000 5.597296 6.674144 -0.684875 -74.659152 4.549445 29.495528 -179.368347 -67.882124 179.960556 4.741789 -5.334392 -0.250341 -0.094069 0.695749 -0.000000 0.000000 0.000000 0.000000 0.000000 0.000000 0.000000 9.115080 -9.673442 -0.747021 72.626110 -5.833427 36.195429 179.517753 73.204388 179.988398 -1.070930 9.230398 -0.088324 -0.024459 -0.638269 -0.000000 0.000000 0.000000 0.000000 0.000000 0.000000 0.000000 
4.043396 16.999886 0.975774 9.509720 61.983535 25.319586 -0.940328 -3.766330 -0.973401 -0.315434 -3.690253 -3.183869 -5.712847 -3.607913 -1.188834 9.529077 -14.901202 -8.625539 -3.194238 -0.235102 -0.247975 0.000000 0.000000 0.000000 5.793608 6.820139 -0.733191 -74.673798 4.549392 29.802556 -179.345511 -67.056044 179.961636 4.559063 -5.345610 -0.241333 -0.089546 0.705096 -0.000000 0.000000 0.000000 0.000000 0.000000 0.000000 0.000000 8.837693 -9.969826 -0.804454 72.246646 -6.320769 36.333910 179.509841 72.754837 179.988778 -1.012235 9.094249 -0.081847 -0.026719 -0.633617 0.000000 0.000000 0.000000 0.000000 0.000000 0.000000 0.000000 
4.244262 17.123264 1.085192 8.968294 61.398535 24.676024 -0.637044 -3.809558 -1.000324 -0.230003 -3.753438 -3.180796 -5.609292 -3.671303 -1.117601 9.402932 -15.166996 -8.715349 -3.150575 -0.231169 -0.267332 0.000000 0.000000 0.000000 5.941056 6.980260 -0.774055 -74.650377 4.515399 30.155931 -179.323313 -66.357767 179.962847 4.378097 -5.340479 -0.231644 -0.085174 0.712493 -0.000000 0.000000 0.000000 0.000000 0.000000 0.000000 0.000000 8.516960 -10.248292 -0.864743 71.967748 -6.808870 36.384411 179.511853 72.423652 179.988720 -1.017768 8.921636 -0.080666 -0.027742 -0.626728 0.000000 0.000000 0.000000 0.000000 0.000000 0.000000 0.000000 
4.444070 17.244298 1.196031 8.418724 60.826956 24.026517 -0.311307 -3.834774 -1.012670 -0.141849 -3.799574 -3.176900 -5.505020 -3.717994 -1.047678 9.250804 -15.422452 -8.797987 -3.096769 -0.226413 -0.285327 0.000000 0.000000 0.000000 6.059826 7.150523 -0.809320 -74.622212 4.455519 30.539894 -179.302895 -65.774492 179.964240 4.186408 -5.318842 -0.220681 -0.080240 0.718094 -0.000000 0.000000 0.000000 0.000000 0.000000 0.000000 0.000000 8.134007 -10.513707 -0.925661 71.791050 -7.294162 36.359005 179.522291 72.185126 179.988354 -1.059949 8.743991 -0.082489 -0.028338 -0.618672 0.000000 0.000000 0.000000 0.000000 0.000000 0.000000 0.000000 
